<?xml version="1.0" encoding="iso-8859-1"?>
<!-- Generator: Adobe Illustrator 18.1.1, SVG Export Plug-In . SVG Version: 6.00 Build 0)  -->
<svg xmlns="http://www.w3.org/2000/svg" xmlns:xlink="http://www.w3.org/1999/xlink" version="1.1" id="Capa_1" x="0px" y="0px" viewBox="0 0 449.104 449.104" style="enable-background:new 0 0 449.104 449.104;" xml:space="preserve" width="512px" height="512px">
<g>
	<path d="M362.128,47.142c-0.008,0-0.016-0.008-0.024-0.008c-39.7-30.832-87.268-47.129-137.552-47.129   c-50.291,0-97.868,16.306-137.584,47.146C31.701,90.069,0,154.731,0,224.548s31.701,134.479,86.968,177.406   c39.716,30.84,87.293,47.146,137.584,47.146s97.868-16.306,137.576-47.146c55.274-42.927,86.976-107.59,86.976-177.406   C449.104,154.731,417.402,90.069,362.128,47.142z M432.627,216.419H281.68c0.049-1.252,0.041-2.52,0.106-3.764   c0.081-1.301,0.228-2.593,0.325-3.894c0.195-2.626,0.382-5.259,0.675-7.86c0.171-1.561,0.431-3.105,0.642-4.658   c0.309-2.325,0.602-4.65,0.992-6.95c0.276-1.642,0.634-3.26,0.951-4.893c0.431-2.187,0.837-4.381,1.325-6.544   c0.382-1.674,0.837-3.316,1.252-4.975c0.528-2.097,1.049-4.194,1.642-6.267c0.488-1.674,1.04-3.325,1.553-4.983   c0.642-2.016,1.26-4.04,1.959-6.04c0.577-1.666,1.227-3.308,1.861-4.958c0.74-1.951,1.463-3.902,2.26-5.82   c0.675-1.642,1.414-3.26,2.138-4.885c0.845-1.886,1.683-3.788,2.577-5.649c0.772-1.601,1.593-3.186,2.414-4.763   c0.943-1.837,1.878-3.674,2.878-5.479c0.862-1.569,1.78-3.105,2.682-4.65c1.049-1.78,2.089-3.552,3.195-5.3   c0.951-1.52,1.951-3.016,2.943-4.519c1.146-1.715,2.292-3.422,3.487-5.105c1.049-1.479,2.13-2.934,3.219-4.381   c1.236-1.65,2.479-3.284,3.764-4.893c1.138-1.422,2.309-2.837,3.487-4.235c1.325-1.577,2.666-3.138,4.04-4.682   c1.219-1.366,2.471-2.715,3.731-4.056c1.422-1.504,2.861-2.999,4.316-4.463c1.317-1.317,2.65-2.609,3.999-3.894   c1.504-1.422,3.024-2.829,4.568-4.219c1.406-1.252,2.821-2.487,4.251-3.715c0.756-0.642,1.528-1.26,2.292-1.886   C403.259,102.083,430.351,156.934,432.627,216.419z M342.969,54.709c-1.398,1.203-2.739,2.455-4.097,3.69   c-1.764,1.593-3.528,3.186-5.235,4.82c-1.366,1.317-2.682,2.682-4.007,4.032c-1.609,1.634-3.219,3.251-4.771,4.926   c-1.309,1.414-2.569,2.861-3.845,4.3c-1.488,1.683-2.959,3.365-4.389,5.08c-1.236,1.496-2.439,3.016-3.633,4.536   c-1.366,1.731-2.715,3.471-4.024,5.243c-1.162,1.561-2.276,3.154-3.398,4.739c-1.252,1.796-2.495,3.601-3.69,5.422   c-1.073,1.618-2.113,3.251-3.129,4.902c-1.154,1.853-2.276,3.723-3.373,5.609c-0.975,1.674-1.926,3.357-2.861,5.056   c-1.04,1.91-2.057,3.845-3.04,5.788c-0.878,1.723-1.748,3.447-2.569,5.194c-0.943,1.975-1.845,3.967-2.723,5.966   c-0.772,1.764-1.536,3.52-2.268,5.3c-0.845,2.04-1.618,4.105-2.398,6.17c-0.667,1.78-1.341,3.56-1.967,5.365   c-0.732,2.113-1.398,4.251-2.073,6.397c-0.553,1.796-1.138,3.585-1.65,5.397c-0.626,2.203-1.179,4.414-1.74,6.633   c-0.455,1.796-0.927,3.577-1.333,5.381c-0.512,2.292-0.951,4.609-1.398,6.934c-0.341,1.764-0.715,3.52-1.016,5.292   c-0.415,2.455-0.732,4.934-1.057,7.413c-0.219,1.666-0.496,3.308-0.683,4.983c-0.309,2.788-0.512,5.601-0.715,8.405   c-0.106,1.39-0.26,2.764-0.341,4.162c-0.081,1.52-0.089,3.056-0.138,4.576H232.68V16.562c40.212,1.528,78.335,14.225,111.215,37.31   C343.579,54.14,343.286,54.433,342.969,54.709z M216.423,16.562v199.857h-32.726c-0.057-1.528-0.057-3.056-0.146-4.576   c-0.073-1.39-0.236-2.772-0.341-4.162c-0.203-2.812-0.406-5.617-0.715-8.405c-0.179-1.658-0.447-3.284-0.667-4.926   c-0.341-2.504-0.658-5.007-1.073-7.478c-0.293-1.74-0.658-3.455-0.992-5.186c-0.455-2.357-0.894-4.706-1.422-7.039   c-0.398-1.772-0.87-3.52-1.309-5.275c-0.569-2.26-1.13-4.519-1.772-6.763c-0.504-1.764-1.065-3.503-1.609-5.251   c-0.683-2.195-1.374-4.381-2.122-6.552c-0.602-1.748-1.26-3.471-1.902-5.202c-0.797-2.13-1.609-4.251-2.471-6.357   c-0.699-1.715-1.447-3.414-2.195-5.113c-0.91-2.065-1.837-4.129-2.804-6.17c-0.805-1.683-1.642-3.349-2.479-5.007   c-1.016-2.008-2.065-3.999-3.146-5.975c-0.894-1.642-1.821-3.268-2.756-4.885c-1.13-1.951-2.292-3.885-3.487-5.796   c-0.992-1.593-1.991-3.17-3.016-4.739c-1.244-1.886-2.52-3.747-3.82-5.601c-1.073-1.528-2.154-3.056-3.268-4.568   c-1.349-1.829-2.747-3.625-4.154-5.414c-1.162-1.471-2.317-2.943-3.52-4.389c-1.463-1.764-2.983-3.487-4.503-5.219   c-1.236-1.398-2.471-2.804-3.739-4.178c-1.585-1.707-3.219-3.365-4.861-5.032c-1.309-1.317-2.593-2.65-3.926-3.942   c-1.715-1.658-3.495-3.251-5.267-4.861c-1.357-1.227-2.691-2.479-4.081-3.674c-0.317-0.276-0.61-0.561-0.927-0.837   C138.08,30.779,176.211,18.09,216.423,16.562z M91.885,64.033c0.788,0.65,1.585,1.276,2.357,1.935   c1.398,1.187,2.78,2.39,4.137,3.609c1.585,1.414,3.146,2.853,4.674,4.308c1.325,1.26,2.634,2.528,3.918,3.812   c1.488,1.488,2.943,2.999,4.381,4.528c1.244,1.325,2.479,2.658,3.682,4.007c1.39,1.561,2.747,3.138,4.089,4.739   c1.162,1.382,2.325,2.772,3.447,4.186c1.292,1.626,2.544,3.268,3.788,4.926c1.081,1.439,2.162,2.886,3.203,4.357   c1.195,1.683,2.341,3.39,3.479,5.105c1,1.504,2,2.999,2.959,4.528c1.089,1.74,2.138,3.512,3.178,5.284   c0.91,1.544,1.829,3.097,2.699,4.666c1,1.805,1.935,3.625,2.878,5.454c0.821,1.593,1.65,3.186,2.422,4.796   c0.894,1.853,1.723,3.739,2.561,5.617c0.723,1.634,1.471,3.26,2.154,4.91c0.797,1.918,1.52,3.869,2.252,5.812   c0.626,1.658,1.276,3.3,1.861,4.975c0.691,1.983,1.317,3.999,1.951,6.007c0.528,1.674,1.081,3.333,1.569,5.023   c0.593,2.048,1.097,4.137,1.626,6.21c0.423,1.674,0.886,3.341,1.268,5.032c0.496,2.162,0.894,4.349,1.325,6.535   c0.317,1.634,0.675,3.251,0.959,4.893c0.39,2.309,0.683,4.641,1,6.966c0.211,1.544,0.463,3.089,0.642,4.641   c0.293,2.609,0.48,5.251,0.675,7.877c0.098,1.292,0.252,2.577,0.325,3.877c0.073,1.244,0.057,2.512,0.106,3.764H16.501   C18.753,156.934,45.829,102.083,91.885,64.033z M16.477,232.676h150.948c-0.049,1.252-0.033,2.52-0.106,3.764   c-0.073,1.292-0.219,2.569-0.317,3.861c-0.195,2.642-0.382,5.275-0.675,7.901c-0.171,1.544-0.431,3.081-0.642,4.617   c-0.317,2.333-0.61,4.674-1.008,6.982c-0.276,1.642-0.634,3.251-0.951,4.885c-0.431,2.195-0.829,4.381-1.325,6.552   c-0.382,1.691-0.845,3.349-1.268,5.023c-0.528,2.073-1.032,4.154-1.626,6.21c-0.488,1.691-1.04,3.357-1.569,5.032   c-0.634,2.008-1.252,4.016-1.943,5.999c-0.585,1.674-1.236,3.325-1.861,4.983c-0.732,1.935-1.455,3.877-2.243,5.788   c-0.691,1.666-1.439,3.308-2.178,4.958c-0.829,1.861-1.65,3.723-2.536,5.568c-0.797,1.642-1.634,3.251-2.471,4.877   c-0.927,1.805-1.845,3.593-2.821,5.365c-0.886,1.609-1.829,3.195-2.764,4.78c-1.016,1.731-2.032,3.463-3.097,5.162   c-0.984,1.569-2.016,3.113-3.04,4.65c-1.114,1.666-2.227,3.333-3.39,4.967c-1.081,1.528-2.195,3.016-3.316,4.511   c-1.203,1.601-2.414,3.203-3.666,4.763c-1.171,1.471-2.374,2.91-3.577,4.349c-1.292,1.536-2.601,3.064-3.934,4.568   c-1.26,1.406-2.544,2.796-3.845,4.17c-1.382,1.471-2.78,2.918-4.211,4.349c-1.341,1.349-2.707,2.666-4.081,3.983   c-1.471,1.398-2.975,2.78-4.495,4.146c-1.414,1.268-2.861,2.528-4.316,3.763c-0.74,0.634-1.512,1.244-2.26,1.861   C45.837,347.013,18.753,292.161,16.477,232.676z M106.135,394.394c1.382-1.195,2.707-2.439,4.064-3.658   c1.78-1.609,3.56-3.219,5.284-4.885c1.341-1.284,2.617-2.617,3.918-3.934c1.642-1.658,3.284-3.316,4.869-5.023   c1.276-1.374,2.512-2.788,3.747-4.194c1.52-1.715,3.032-3.438,4.487-5.202c1.203-1.455,2.374-2.934,3.544-4.414   c1.398-1.78,2.78-3.56,4.121-5.365c1.13-1.528,2.219-3.073,3.308-4.617c1.292-1.837,2.552-3.674,3.788-5.552   c1.04-1.577,2.048-3.178,3.048-4.788c1.179-1.886,2.325-3.804,3.438-5.723c0.959-1.642,1.886-3.292,2.796-4.958   c1.065-1.943,2.089-3.902,3.097-5.885c0.862-1.691,1.707-3.39,2.528-5.105c0.959-2.008,1.87-4.032,2.764-6.072   c0.764-1.723,1.52-3.455,2.235-5.202c0.845-2.073,1.642-4.162,2.43-6.259c0.658-1.764,1.325-3.528,1.943-5.3   c0.74-2.13,1.414-4.284,2.089-6.446c0.553-1.78,1.13-3.552,1.642-5.34c0.626-2.211,1.187-4.446,1.748-6.674   c0.447-1.788,0.927-3.56,1.333-5.349c0.52-2.309,0.959-4.641,1.406-6.974c0.341-1.748,0.707-3.487,1.008-5.243   c0.415-2.463,0.732-4.942,1.065-7.43c0.219-1.658,0.488-3.308,0.675-4.983c0.309-2.772,0.512-5.568,0.715-8.364   c0.106-1.398,0.26-2.788,0.341-4.194c0.081-1.528,0.089-3.056,0.146-4.576h32.726V432.55   c-40.204-1.528-78.335-14.225-111.215-37.318C105.525,394.955,105.818,394.663,106.135,394.394z M232.68,432.542V232.676h32.734   c0.049,1.528,0.057,3.056,0.138,4.576c0.081,1.39,0.236,2.772,0.341,4.162c0.203,2.812,0.406,5.617,0.715,8.405   c0.187,1.666,0.463,3.316,0.683,4.975c0.325,2.479,0.642,4.958,1.057,7.413c0.301,1.78,0.675,3.536,1.016,5.292   c0.447,2.317,0.878,4.633,1.398,6.934c0.406,1.805,0.878,3.585,1.333,5.381c0.561,2.211,1.114,4.438,1.74,6.633   c0.512,1.813,1.097,3.601,1.65,5.397c0.675,2.138,1.341,4.268,2.073,6.389c0.626,1.805,1.301,3.577,1.967,5.365   c0.78,2.065,1.553,4.129,2.398,6.17c0.732,1.78,1.504,3.544,2.276,5.3c0.87,2,1.772,3.991,2.715,5.958   c0.837,1.756,1.699,3.487,2.569,5.219c0.984,1.926,1.991,3.853,3.032,5.763c0.935,1.707,1.894,3.398,2.878,5.08   c1.089,1.878,2.203,3.739,3.349,5.584c1.032,1.658,2.081,3.3,3.154,4.934c1.187,1.813,2.422,3.593,3.666,5.373   c1.13,1.609,2.26,3.219,3.43,4.796c1.292,1.748,2.634,3.471,3.983,5.186c1.211,1.536,2.422,3.073,3.674,4.585   c1.414,1.691,2.869,3.349,4.324,5.007c1.292,1.471,2.577,2.934,3.91,4.373c1.52,1.634,3.089,3.219,4.658,4.812   c1.366,1.398,2.723,2.796,4.137,4.162c1.642,1.577,3.341,3.113,5.04,4.641c1.423,1.292,2.829,2.609,4.292,3.877   c0.301,0.252,0.577,0.528,0.878,0.797C311.016,418.317,272.876,431.005,232.68,432.542z M357.202,385.063   c-0.764-0.626-1.528-1.244-2.284-1.878c-1.439-1.219-2.861-2.463-4.251-3.715c-1.553-1.39-3.089-2.804-4.585-4.235   c-1.341-1.276-2.666-2.561-3.967-3.869c-1.479-1.479-2.918-2.983-4.357-4.503c-1.244-1.325-2.479-2.658-3.682-4.007   c-1.398-1.561-2.756-3.154-4.105-4.755c-1.154-1.374-2.3-2.756-3.422-4.154c-1.301-1.642-2.569-3.308-3.829-4.983   c-1.065-1.423-2.13-2.845-3.154-4.284c-1.211-1.715-2.39-3.463-3.552-5.21c-0.975-1.471-1.951-2.926-2.886-4.422   c-1.122-1.78-2.187-3.593-3.243-5.406c-0.886-1.512-1.78-3.016-2.626-4.552c-1.016-1.845-1.975-3.715-2.934-5.584   c-0.797-1.553-1.601-3.097-2.357-4.666c-0.919-1.902-1.772-3.845-2.626-5.771c-0.707-1.585-1.431-3.17-2.097-4.771   c-0.813-1.959-1.553-3.95-2.309-5.942c-0.602-1.609-1.236-3.219-1.813-4.845c-0.715-2.032-1.349-4.097-1.992-6.153   c-0.512-1.626-1.057-3.235-1.528-4.877c-0.602-2.105-1.13-4.235-1.666-6.365c-0.415-1.626-0.862-3.235-1.236-4.885   c-0.504-2.195-0.902-4.406-1.333-6.617c-0.309-1.601-0.667-3.203-0.943-4.82c-0.39-2.317-0.683-4.666-1-7.007   c-0.203-1.528-0.463-3.056-0.634-4.601c-0.293-2.617-0.488-5.259-0.675-7.901c-0.098-1.284-0.244-2.561-0.325-3.861   c-0.065-1.244-0.057-2.512-0.106-3.764h150.948C430.351,292.161,403.259,347.013,357.202,385.063z" fill="#ff7878"/>
</g>
<g>
</g>
<g>
</g>
<g>
</g>
<g>
</g>
<g>
</g>
<g>
</g>
<g>
</g>
<g>
</g>
<g>
</g>
<g>
</g>
<g>
</g>
<g>
</g>
<g>
</g>
<g>
</g>
<g>
</g>
</svg>
