<svg width="230" height="185" xmlns="http://www.w3.org/2000/svg">

 <g>
  <title>background</title>
  <rect fill="none" id="canvas_background" height="187" width="232" y="-1" x="-1"/>
 </g>
 <g>
  <title>Layer 1</title>
  <g opacity="0.5" stroke="null" id="svg_1">
   <g stroke="null" id="svg_2">
    <path stroke="null" id="svg_3" fill="#000000" d="m115.000205,106.796333c20.790077,0 37.645699,-19.727676 37.645699,-44.062785c0,-33.746123 -16.854801,-44.062374 -37.645699,-44.062374c-20.791719,0 -37.645699,10.316251 -37.645699,44.062374c0.00041,24.335109 16.854391,44.062785 37.645699,44.062785z"/>
    <path stroke="null" id="svg_4" fill="#000000" d="m198.129738,171.650836l-18.992735,-42.784538c-0.868715,-1.95779 -2.394815,-3.581553 -4.294334,-4.570501l-29.475589,-15.343885c-0.649998,-0.33772 -1.437053,-0.272063 -2.021394,0.170296c-8.336713,6.30547 -18.138793,9.638349 -28.34548,9.638349c-10.208329,0 -20.009588,-3.33288 -28.3463,-9.638349c-0.585983,-0.44236 -1.373038,-0.508016 -2.023036,-0.170296l-29.473538,15.343885c-1.90034,0.988948 -3.424798,2.611891 -4.294334,4.570501l-18.992735,42.784538c-1.309433,2.949611 -1.041063,6.324346 0.718116,9.029797c1.758359,2.705041 4.734232,4.319366 7.96083,4.319366l148.900763,0c3.226598,0 6.203292,-1.615146 7.961651,-4.319776c1.758359,-2.705041 2.02755,-6.081007 0.718116,-9.029387z"/>
   </g>
  </g>
  <g id="svg_5"/>
  <g id="svg_6"/>
  <g id="svg_7"/>
  <g id="svg_8"/>
  <g id="svg_9"/>
  <g id="svg_10"/>
  <g id="svg_11"/>
  <g id="svg_12"/>
  <g id="svg_13"/>
  <g id="svg_14"/>
  <g id="svg_15"/>
  <g id="svg_16"/>
  <g id="svg_17"/>
  <g id="svg_18"/>
  <g id="svg_19"/>
 </g>
</svg>