<?xml version="1.0" encoding="iso-8859-1"?>
<!-- Generator: Adobe Illustrator 18.1.1, SVG Export Plug-In . SVG Version: 6.00 Build 0)  -->
<svg xmlns="http://www.w3.org/2000/svg" xmlns:xlink="http://www.w3.org/1999/xlink" version="1.1" id="Capa_1" x="0px" y="0px" viewBox="0 0 345.816 345.816" style="enable-background:new 0 0 345.816 345.816;" xml:space="preserve" width="512px" height="512px">
<g>
	<path d="M287.866,51.906c0.991-1.014,1.981-2.017,2.995-3.007c0.465-0.453,0.955-0.895,1.426-1.343   c32.728,31.225,51.942,74.126,53.505,119.254H238.705c0.036-1.02,0.03-2.041,0.084-3.055c0.054-0.973,0.155-1.939,0.227-2.906   c0.137-2.017,0.274-4.04,0.483-6.044c0.125-1.17,0.304-2.327,0.448-3.491c0.227-1.796,0.436-3.598,0.722-5.382   c0.197-1.235,0.448-2.464,0.668-3.693c0.304-1.695,0.597-3.395,0.955-5.078c0.268-1.265,0.585-2.512,0.877-3.765   c0.382-1.635,0.758-3.276,1.187-4.893c0.34-1.271,0.722-2.524,1.086-3.783c0.459-1.587,0.913-3.174,1.42-4.75   c0.406-1.265,0.853-2.512,1.289-3.771c0.537-1.539,1.068-3.085,1.641-4.606c0.477-1.259,0.99-2.5,1.498-3.753   c0.609-1.492,1.211-2.983,1.862-4.463c0.543-1.241,1.122-2.47,1.701-3.699c0.674-1.45,1.354-2.9,2.07-4.326   c0.615-1.223,1.259-2.434,1.897-3.64c0.746-1.402,1.498-2.804,2.285-4.195c0.68-1.199,1.384-2.381,2.088-3.562   c0.812-1.36,1.635-2.715,2.488-4.052c0.746-1.17,1.51-2.327,2.285-3.479c0.883-1.313,1.778-2.619,2.697-3.914   c0.806-1.134,1.629-2.255,2.464-3.371c0.949-1.265,1.909-2.524,2.894-3.765c0.865-1.098,1.748-2.184,2.643-3.258   c1.014-1.217,2.041-2.417,3.091-3.61c0.931-1.056,1.874-2.106,2.828-3.145C285.658,54.191,286.756,53.045,287.866,51.906z" fill="#ff7878"/>
	<path d="M282.239,40.634c-1.11,1.086-2.184,2.196-3.264,3.306c-1.152,1.187-2.303,2.375-3.419,3.592   c-1.038,1.128-2.047,2.279-3.061,3.431c-1.092,1.247-2.178,2.5-3.234,3.777c-0.973,1.169-1.915,2.357-2.858,3.55   c-1.026,1.307-2.047,2.619-3.037,3.95c-0.901,1.211-1.784,2.429-2.649,3.658c-0.961,1.36-1.903,2.727-2.828,4.111   c-0.835,1.247-1.653,2.506-2.458,3.771c-0.889,1.408-1.76,2.828-2.613,4.254c-0.764,1.277-1.516,2.56-2.244,3.855   c-0.823,1.462-1.623,2.936-2.405,4.415c-0.692,1.307-1.378,2.613-2.035,3.938c-0.752,1.51-1.468,3.025-2.184,4.553   c-0.621,1.331-1.241,2.661-1.826,4.01c-0.68,1.551-1.319,3.121-1.957,4.69c-0.549,1.354-1.098,2.703-1.611,4.063   c-0.603,1.599-1.164,3.21-1.718,4.821c-0.471,1.366-0.955,2.733-1.396,4.111c-0.525,1.647-1.002,3.312-1.486,4.97   c-0.4,1.372-0.812,2.739-1.175,4.117c-0.453,1.707-0.847,3.431-1.247,5.149c-0.316,1.354-0.656,2.709-0.943,4.075   c-0.376,1.778-0.686,3.568-1.008,5.358c-0.239,1.337-0.507,2.661-0.716,4.004c-0.298,1.88-0.519,3.777-0.758,5.669   c-0.155,1.259-0.352,2.518-0.483,3.783c-0.221,2.1-0.358,4.219-0.507,6.331c-0.078,1.074-0.191,2.142-0.245,3.216   c-0.066,1.211-0.06,2.429-0.095,3.64h-47.902V0c38.283,1.319,74.95,15.108,104.426,39.56   C282.937,39.906,282.603,40.282,282.239,40.634z" fill="#ff7878"/>
	<path d="M166.941,0v166.81h-47.896c-0.042-1.211-0.036-2.429-0.095-3.64   c-0.054-1.074-0.173-2.142-0.245-3.216c-0.149-2.112-0.286-4.231-0.507-6.331c-0.131-1.265-0.328-2.518-0.483-3.783   c-0.239-1.891-0.459-3.789-0.758-5.669c-0.209-1.349-0.483-2.679-0.722-4.022c-0.322-1.784-0.627-3.562-1.002-5.334   c-0.286-1.372-0.632-2.733-0.949-4.105c-0.4-1.712-0.794-3.425-1.241-5.126c-0.364-1.384-0.776-2.751-1.175-4.117   c-0.483-1.665-0.961-3.324-1.486-4.97c-0.442-1.378-0.925-2.739-1.396-4.111c-0.561-1.611-1.116-3.228-1.718-4.821   c-0.513-1.366-1.068-2.715-1.611-4.063c-0.638-1.569-1.277-3.139-1.957-4.69c-0.591-1.349-1.205-2.679-1.826-4.01   c-0.71-1.528-1.432-3.049-2.184-4.553c-0.662-1.319-1.343-2.631-2.035-3.938c-0.788-1.48-1.581-2.96-2.405-4.415   c-0.728-1.295-1.486-2.578-2.244-3.855c-0.853-1.432-1.724-2.852-2.613-4.254c-0.806-1.271-1.623-2.524-2.458-3.777   c-0.925-1.378-1.862-2.745-2.822-4.099c-0.871-1.235-1.76-2.458-2.661-3.67c-0.991-1.331-2.005-2.637-3.031-3.938   c-0.943-1.193-1.886-2.381-2.858-3.55c-1.056-1.277-2.142-2.53-3.234-3.777c-1.008-1.152-2.017-2.303-3.061-3.431   c-1.116-1.217-2.267-2.405-3.419-3.592c-1.08-1.11-2.154-2.22-3.264-3.306c-0.358-0.352-0.698-0.722-1.062-1.074   C91.991,15.108,128.658,1.319,166.941,0z" fill="#ff7878"/>
	<path d="M53.529,47.556c0.471,0.453,0.961,0.889,1.426,1.343c1.014,0.991,2.011,1.999,2.995,3.007   c1.11,1.134,2.208,2.285,3.282,3.449c0.955,1.038,1.897,2.088,2.828,3.145c1.05,1.193,2.076,2.393,3.091,3.61   c0.895,1.074,1.778,2.16,2.643,3.258c0.985,1.241,1.945,2.5,2.894,3.765c0.835,1.116,1.659,2.238,2.464,3.371   c0.919,1.289,1.814,2.596,2.697,3.914c0.77,1.152,1.539,2.309,2.285,3.479c0.853,1.337,1.677,2.691,2.488,4.052   c0.71,1.181,1.414,2.363,2.088,3.562c0.788,1.384,1.539,2.787,2.285,4.195c0.644,1.211,1.283,2.417,1.897,3.64   c0.716,1.432,1.396,2.876,2.071,4.326c0.573,1.229,1.152,2.458,1.701,3.699c0.644,1.474,1.253,2.972,1.862,4.463   c0.507,1.247,1.02,2.494,1.498,3.753c0.579,1.522,1.11,3.067,1.641,4.606c0.436,1.253,0.883,2.506,1.289,3.771   c0.507,1.569,0.961,3.162,1.42,4.75c0.364,1.259,0.752,2.512,1.086,3.783c0.43,1.623,0.806,3.258,1.187,4.893   c0.292,1.253,0.615,2.506,0.877,3.765c0.358,1.683,0.65,3.383,0.955,5.078c0.221,1.229,0.471,2.458,0.668,3.693   c0.28,1.784,0.495,3.586,0.722,5.382c0.149,1.164,0.328,2.321,0.448,3.491c0.209,2.005,0.346,4.028,0.483,6.044   c0.066,0.973,0.173,1.933,0.227,2.906c0.054,1.014,0.048,2.041,0.084,3.055H0.024C1.587,121.682,20.801,78.781,53.529,47.556z" fill="#ff7878"/>
	<path d="M57.95,293.654c-0.985,1.008-1.981,2.017-2.995,3.007c-0.465,0.453-0.955,0.895-1.426,1.343   c-32.728-31.225-51.942-74.132-53.505-119.26h107.093c-0.036,1.02-0.03,2.041-0.084,3.055c-0.054,0.973-0.155,1.939-0.227,2.906   c-0.137,2.017-0.274,4.04-0.483,6.044c-0.125,1.17-0.304,2.327-0.448,3.491c-0.227,1.796-0.436,3.592-0.716,5.382   c-0.197,1.241-0.448,2.47-0.668,3.705c-0.304,1.695-0.597,3.389-0.955,5.072c-0.269,1.265-0.585,2.518-0.883,3.771   c-0.382,1.635-0.758,3.27-1.187,4.893c-0.334,1.271-0.722,2.524-1.086,3.783c-0.459,1.587-0.913,3.174-1.42,4.744   c-0.406,1.265-0.859,2.518-1.295,3.777c-0.537,1.539-1.062,3.079-1.641,4.606c-0.477,1.259-0.991,2.5-1.498,3.747   c-0.609,1.498-1.211,2.989-1.862,4.469c-0.543,1.241-1.122,2.464-1.695,3.693c-0.68,1.45-1.36,2.906-2.076,4.338   c-0.615,1.223-1.253,2.429-1.897,3.634c-0.746,1.408-1.498,2.81-2.285,4.201c-0.674,1.193-1.378,2.375-2.082,3.55   c-0.817,1.366-1.641,2.721-2.5,4.063c-0.74,1.164-1.504,2.315-2.273,3.467c-0.883,1.319-1.778,2.625-2.703,3.92   c-0.806,1.134-1.629,2.249-2.464,3.365c-0.949,1.265-1.909,2.524-2.894,3.765c-0.871,1.098-1.754,2.184-2.649,3.264   c-1.014,1.217-2.047,2.417-3.091,3.61c-0.931,1.056-1.868,2.1-2.822,3.139C60.158,291.368,59.06,292.514,57.95,293.654z" fill="#ff7878"/>
	<path d="M172.908,345.816c-40.443,0-79.389-14.088-110.393-39.817c0.364-0.352,0.698-0.722,1.062-1.074   c1.11-1.086,2.184-2.196,3.264-3.306c1.152-1.187,2.303-2.375,3.419-3.592c1.038-1.128,2.047-2.279,3.061-3.431   c1.092-1.247,2.178-2.5,3.234-3.777c0.973-1.169,1.915-2.357,2.858-3.55c1.026-1.301,2.041-2.613,3.031-3.938   c0.907-1.217,1.79-2.44,2.667-3.682c0.955-1.354,1.897-2.715,2.816-4.087c0.835-1.253,1.659-2.512,2.464-3.783   c0.895-1.408,1.76-2.828,2.613-4.26c0.764-1.277,1.516-2.56,2.244-3.855c0.823-1.462,1.623-2.936,2.405-4.421   c0.692-1.307,1.378-2.614,2.035-3.932c0.752-1.51,1.474-3.031,2.184-4.559c0.621-1.331,1.235-2.661,1.826-4.004   c0.68-1.551,1.319-3.127,1.957-4.696c0.549-1.349,1.098-2.697,1.611-4.063c0.603-1.599,1.164-3.21,1.718-4.827   c0.471-1.366,0.955-2.727,1.396-4.105c0.525-1.647,1.002-3.312,1.486-4.976c0.4-1.372,0.812-2.739,1.175-4.117   c0.448-1.701,0.841-3.419,1.247-5.132c0.322-1.366,0.662-2.727,0.949-4.099c0.37-1.772,0.68-3.556,1.002-5.334   c0.239-1.337,0.507-2.673,0.722-4.016c0.298-1.88,0.519-3.777,0.758-5.669c0.161-1.265,0.352-2.518,0.483-3.789   c0.221-2.1,0.358-4.219,0.507-6.331c0.078-1.074,0.191-2.142,0.245-3.216c0.066-1.211,0.06-2.429,0.095-3.64h47.89v166.261h11.934   V178.744h47.896c0.042,1.211,0.036,2.429,0.095,3.64c0.054,1.074,0.173,2.142,0.245,3.216c0.149,2.112,0.286,4.231,0.507,6.331   c0.131,1.265,0.328,2.524,0.483,3.789c0.239,1.891,0.459,3.789,0.758,5.669c0.209,1.343,0.477,2.667,0.716,4.004   c0.322,1.79,0.632,3.58,1.008,5.358c0.286,1.366,0.627,2.715,0.943,4.069c0.406,1.724,0.8,3.449,1.253,5.155   c0.364,1.378,0.776,2.745,1.175,4.117c0.483,1.665,0.961,3.324,1.486,4.976c0.442,1.378,0.925,2.739,1.396,4.105   c0.561,1.617,1.116,3.228,1.718,4.827c0.513,1.366,1.068,2.709,1.611,4.063c0.638,1.575,1.277,3.145,1.957,4.696   c0.591,1.343,1.205,2.673,1.826,4.004c0.71,1.528,1.432,3.049,2.184,4.559c0.662,1.325,1.343,2.631,2.035,3.932   c0.788,1.48,1.581,2.96,2.405,4.421c0.728,1.295,1.48,2.578,2.244,3.855c0.853,1.432,1.724,2.852,2.613,4.26   c0.806,1.271,1.623,2.53,2.458,3.777c0.925,1.378,1.862,2.745,2.822,4.099c0.871,1.229,1.754,2.452,2.655,3.664   c0.991,1.331,2.005,2.643,3.037,3.95c0.937,1.193,1.886,2.381,2.858,3.55c1.056,1.277,2.142,2.53,3.234,3.777   c1.008,1.152,2.017,2.303,3.061,3.431c1.116,1.217,2.267,2.405,3.419,3.592c1.08,1.11,2.154,2.22,3.264,3.306   c0.358,0.352,0.698,0.722,1.062,1.074C252.297,331.728,213.351,345.816,172.908,345.816z" fill="#ff7878"/>
	<path d="M292.287,298.003c-0.471-0.453-0.961-0.889-1.426-1.343c-1.014-0.991-2.011-1.993-2.995-3.007   c-1.11-1.14-2.208-2.285-3.288-3.455c-0.955-1.032-1.897-2.082-2.822-3.139c-1.05-1.193-2.076-2.393-3.091-3.61   c-0.895-1.08-1.778-2.166-2.649-3.264c-0.985-1.241-1.945-2.5-2.894-3.765c-0.835-1.116-1.659-2.232-2.464-3.365   c-0.919-1.295-1.82-2.602-2.703-3.92c-0.77-1.146-1.534-2.297-2.273-3.467c-0.853-1.343-1.683-2.703-2.5-4.063   c-0.704-1.175-1.408-2.357-2.082-3.55c-0.788-1.384-1.539-2.792-2.285-4.201c-0.638-1.205-1.283-2.417-1.897-3.634   c-0.716-1.432-1.396-2.882-2.076-4.338c-0.573-1.229-1.152-2.452-1.695-3.693c-0.65-1.48-1.253-2.977-1.862-4.469   c-0.507-1.247-1.02-2.488-1.498-3.747c-0.579-1.522-1.11-3.067-1.641-4.606c-0.436-1.259-0.883-2.506-1.295-3.777   c-0.507-1.569-0.961-3.156-1.42-4.744c-0.364-1.259-0.752-2.512-1.086-3.783c-0.43-1.623-0.806-3.258-1.187-4.893   c-0.292-1.259-0.615-2.506-0.883-3.771c-0.352-1.683-0.644-3.377-0.955-5.072c-0.221-1.235-0.471-2.464-0.668-3.705   c-0.28-1.784-0.495-3.586-0.716-5.382c-0.149-1.164-0.328-2.321-0.448-3.491c-0.209-2.005-0.346-4.028-0.483-6.044   c-0.066-0.973-0.173-1.933-0.227-2.906c-0.054-1.014-0.048-2.041-0.084-3.055h107.093   C344.229,223.871,325.015,266.779,292.287,298.003z" fill="#ff7878"/>

	<animateTransform
        attributeType="xml"
        attributeName="transform"
        type="rotate"
        from="0 173 173"
        to="360 173 173"
        dur=".5s"
        repeatCount="1" />

</g>
<g>
</g>
<g>
</g>
<g>
</g>
<g>
</g>
<g>
</g>
<g>
</g>
<g>
</g>
<g>
</g>
<g>
</g>
<g>
</g>
<g>
</g>
<g>
</g>
<g>
</g>
<g>
</g>
<g>
</g>
</svg>
